<mxfile host="app.diagrams.net" modified="2024-02-02T03:21:09.395Z" agent="Mozilla/5.0 (Windows NT 10.0; Win64; x64) AppleWebKit/537.36 (KHTML, like Gecko) Chrome/121.0.0.0 Safari/537.36" etag="n44E-kpEAUH-BqI-w0O-" version="23.1.1" type="github">
  <diagram name="Halaman-1" id="O65U73dNJmeI4KCh6ycf">
    <mxGraphModel dx="607" dy="323" grid="1" gridSize="10" guides="1" tooltips="1" connect="1" arrows="1" fold="0" page="1" pageScale="1" pageWidth="827" pageHeight="1169" math="0" shadow="0">
      <root>
        <mxCell id="0" />
        <mxCell id="1" parent="0" />
        <mxCell id="fwnt7or19e0yJO4zHSV0-4" value="" style="swimlane;startSize=0;" vertex="1" parent="1">
          <mxGeometry x="270" y="60" width="300" height="420" as="geometry">
            <mxRectangle x="270" y="80" width="50" height="40" as="alternateBounds" />
          </mxGeometry>
        </mxCell>
        <mxCell id="fwnt7or19e0yJO4zHSV0-21" value="perpustakaan digital" style="text;strokeColor=none;align=center;fillColor=none;html=1;verticalAlign=middle;whiteSpace=wrap;rounded=0;fontSize=12;fontFamily=Helvetica;fontColor=default;" vertex="1" parent="fwnt7or19e0yJO4zHSV0-4">
          <mxGeometry x="92" width="116" height="30" as="geometry" />
        </mxCell>
        <mxCell id="fwnt7or19e0yJO4zHSV0-22" value="" style="ellipse;whiteSpace=wrap;html=1;strokeColor=default;align=center;verticalAlign=top;fontFamily=Helvetica;fontSize=12;fontColor=default;fillColor=default;" vertex="1" parent="fwnt7or19e0yJO4zHSV0-4">
          <mxGeometry x="50" y="60" width="200" height="70" as="geometry" />
        </mxCell>
        <mxCell id="fwnt7or19e0yJO4zHSV0-24" value="" style="ellipse;whiteSpace=wrap;html=1;strokeColor=default;align=center;verticalAlign=top;fontFamily=Helvetica;fontSize=12;fontColor=default;fillColor=default;" vertex="1" parent="fwnt7or19e0yJO4zHSV0-4">
          <mxGeometry x="50" y="150" width="200" height="70" as="geometry" />
        </mxCell>
        <mxCell id="fwnt7or19e0yJO4zHSV0-26" value="" style="ellipse;whiteSpace=wrap;html=1;strokeColor=default;align=center;verticalAlign=top;fontFamily=Helvetica;fontSize=12;fontColor=default;fillColor=default;" vertex="1" parent="fwnt7or19e0yJO4zHSV0-4">
          <mxGeometry x="50" y="240" width="200" height="70" as="geometry" />
        </mxCell>
        <mxCell id="fwnt7or19e0yJO4zHSV0-28" value="" style="ellipse;whiteSpace=wrap;html=1;strokeColor=default;align=center;verticalAlign=top;fontFamily=Helvetica;fontSize=12;fontColor=default;fillColor=default;" vertex="1" parent="fwnt7or19e0yJO4zHSV0-4">
          <mxGeometry x="50" y="330" width="200" height="70" as="geometry" />
        </mxCell>
        <mxCell id="fwnt7or19e0yJO4zHSV0-35" value="form pengunjung" style="text;strokeColor=none;align=center;fillColor=none;html=1;verticalAlign=middle;whiteSpace=wrap;rounded=0;fontSize=12;fontFamily=Helvetica;fontColor=default;" vertex="1" parent="fwnt7or19e0yJO4zHSV0-4">
          <mxGeometry x="89" y="80" width="110" height="30" as="geometry" />
        </mxCell>
        <mxCell id="fwnt7or19e0yJO4zHSV0-36" value="pencarian buku" style="text;strokeColor=none;align=center;fillColor=none;html=1;verticalAlign=middle;whiteSpace=wrap;rounded=0;fontSize=12;fontFamily=Helvetica;fontColor=default;" vertex="1" parent="fwnt7or19e0yJO4zHSV0-4">
          <mxGeometry x="102" y="170" width="96" height="30" as="geometry" />
        </mxCell>
        <mxCell id="fwnt7or19e0yJO4zHSV0-40" value="detail buku" style="text;strokeColor=none;align=center;fillColor=none;html=1;verticalAlign=middle;whiteSpace=wrap;rounded=0;fontSize=12;fontFamily=Helvetica;fontColor=default;" vertex="1" parent="fwnt7or19e0yJO4zHSV0-4">
          <mxGeometry x="107" y="260" width="86" height="30" as="geometry" />
        </mxCell>
        <mxCell id="fwnt7or19e0yJO4zHSV0-41" value="laporan statistik" style="text;strokeColor=none;align=center;fillColor=none;html=1;verticalAlign=middle;whiteSpace=wrap;rounded=0;fontSize=12;fontFamily=Helvetica;fontColor=default;" vertex="1" parent="fwnt7or19e0yJO4zHSV0-4">
          <mxGeometry x="107" y="350" width="86" height="30" as="geometry" />
        </mxCell>
        <mxCell id="fwnt7or19e0yJO4zHSV0-42" value="" style="endArrow=none;html=1;rounded=0;fontFamily=Helvetica;fontSize=12;fontColor=default;exitX=1;exitY=0.3333333333333333;exitDx=0;exitDy=0;exitPerimeter=0;" edge="1" parent="fwnt7or19e0yJO4zHSV0-4">
          <mxGeometry width="50" height="50" relative="1" as="geometry">
            <mxPoint x="-60.000000000000114" y="184.66" as="sourcePoint" />
            <mxPoint x="50" y="184.66" as="targetPoint" />
          </mxGeometry>
        </mxCell>
        <mxCell id="fwnt7or19e0yJO4zHSV0-5" value="pengunjung&lt;br&gt;" style="shape=umlActor;verticalLabelPosition=bottom;verticalAlign=top;html=1;outlineConnect=0;" vertex="1" parent="1">
          <mxGeometry x="140" y="200" width="60" height="120" as="geometry" />
        </mxCell>
        <mxCell id="fwnt7or19e0yJO4zHSV0-6" value="perpustakawan&lt;br&gt;" style="shape=umlActor;verticalLabelPosition=bottom;verticalAlign=top;html=1;outlineConnect=0;" vertex="1" parent="1">
          <mxGeometry x="640" y="200" width="60" height="120" as="geometry" />
        </mxCell>
        <mxCell id="fwnt7or19e0yJO4zHSV0-34" value="" style="endArrow=none;html=1;rounded=0;fontFamily=Helvetica;fontSize=12;fontColor=default;" edge="1" parent="1">
          <mxGeometry width="50" height="50" relative="1" as="geometry">
            <mxPoint x="190" y="200" as="sourcePoint" />
            <mxPoint x="320.2937111323024" y="159.99660152891343" as="targetPoint" />
            <Array as="points">
              <mxPoint x="210" y="179.53" />
            </Array>
          </mxGeometry>
        </mxCell>
        <mxCell id="fwnt7or19e0yJO4zHSV0-44" value="" style="endArrow=none;html=1;rounded=0;fontFamily=Helvetica;fontSize=12;fontColor=default;entryX=0.01;entryY=0.588;entryDx=0;entryDy=0;entryPerimeter=0;" edge="1" parent="1" target="fwnt7or19e0yJO4zHSV0-26">
          <mxGeometry width="50" height="50" relative="1" as="geometry">
            <mxPoint x="210" y="310" as="sourcePoint" />
            <mxPoint x="240" y="260" as="targetPoint" />
            <Array as="points">
              <mxPoint x="230" y="320" />
              <mxPoint x="290" y="335" />
            </Array>
          </mxGeometry>
        </mxCell>
        <mxCell id="fwnt7or19e0yJO4zHSV0-45" value="" style="endArrow=none;html=1;rounded=0;fontFamily=Helvetica;fontSize=12;fontColor=default;exitX=1.013;exitY=0.44;exitDx=0;exitDy=0;exitPerimeter=0;" edge="1" parent="1" source="fwnt7or19e0yJO4zHSV0-22">
          <mxGeometry width="50" height="50" relative="1" as="geometry">
            <mxPoint x="590" y="250" as="sourcePoint" />
            <mxPoint x="650" y="190" as="targetPoint" />
            <Array as="points">
              <mxPoint x="590" y="160" />
              <mxPoint x="630" y="170" />
            </Array>
          </mxGeometry>
        </mxCell>
        <mxCell id="fwnt7or19e0yJO4zHSV0-46" value="" style="endArrow=none;html=1;rounded=0;fontFamily=Helvetica;fontSize=12;fontColor=default;" edge="1" parent="1" source="fwnt7or19e0yJO4zHSV0-24">
          <mxGeometry width="50" height="50" relative="1" as="geometry">
            <mxPoint x="580" y="290" as="sourcePoint" />
            <mxPoint x="630" y="240" as="targetPoint" />
          </mxGeometry>
        </mxCell>
        <mxCell id="fwnt7or19e0yJO4zHSV0-47" value="" style="endArrow=none;html=1;rounded=0;fontFamily=Helvetica;fontSize=12;fontColor=default;exitX=0.993;exitY=0.617;exitDx=0;exitDy=0;exitPerimeter=0;" edge="1" parent="1">
          <mxGeometry width="50" height="50" relative="1" as="geometry">
            <mxPoint x="518.5999999999999" y="333.19000000000005" as="sourcePoint" />
            <mxPoint x="630" y="280" as="targetPoint" />
          </mxGeometry>
        </mxCell>
        <mxCell id="fwnt7or19e0yJO4zHSV0-49" value="" style="endArrow=none;html=1;rounded=0;fontFamily=Helvetica;fontSize=12;fontColor=default;exitX=0.982;exitY=0.602;exitDx=0;exitDy=0;exitPerimeter=0;" edge="1" parent="1" source="fwnt7or19e0yJO4zHSV0-28">
          <mxGeometry width="50" height="50" relative="1" as="geometry">
            <mxPoint x="580" y="350" as="sourcePoint" />
            <mxPoint x="630" y="300" as="targetPoint" />
          </mxGeometry>
        </mxCell>
      </root>
    </mxGraphModel>
  </diagram>
</mxfile>
